<svg width="28" height="16" viewBox="0 0 28 16" fill="none" xmlns="http://www.w3.org/2000/svg">
<path d="M24.6411 5.98892C27.4735 2.15422 26.8454 2.08238 27.5418 0.884277H22.1139C22.1139 0.884277 21.7282 2.22356 21.6104 2.46331C20.5679 4.58364 18.2295 7.76509 16.8153 8.09025C15.4227 8.41061 15.6075 5.11973 15.6934 3.6942C15.7742 2.37288 15.7604 1.91051 15.7216 1.68225C15.6648 1.34873 15.3849 1.10544 15.0491 1.06304C14.3568 0.975331 13.1006 0.851281 11.6939 0.916438L10.4354 0.958206C10.9316 2.06818 11.2668 1.72798 11.4496 3.01213C11.6559 4.51556 11.5747 8.17379 10.094 8.17379C7.72034 8.17379 5.05598 1.04487 4.97119 0.884277H0.168945L0.608342 1.98381C4.14962 10.849 8.57866 14.955 14.6385 15.2964L15.4271 15.3192L15.4835 14.5534C15.5687 13.3707 16.162 11.6683 17.2143 11.6683C18.7691 11.6683 19.2184 12.121 20.2438 13.3881C21.2297 14.6029 21.909 15.3192 23.5 15.3192H27.5418L26.9654 14.1601C26.0653 12.3531 24.2599 10.8039 23.5549 9.90527C23.2995 9.56695 23.048 9.03211 23.3083 8.38513C23.5211 7.82168 24.1547 6.64655 24.6411 5.98892Z" fill="white"/>
</svg>
