<svg width="40" height="34" viewBox="0 0 40 34" fill="none" xmlns="http://www.w3.org/2000/svg">
<path d="M5.475 29.6387C5.15141 29.6387 4.88906 29.9011 4.88906 30.2247C4.88906 30.5483 5.15141 30.8106 5.475 30.8106C7.29305 30.8106 8.77227 29.1426 8.77227 27.0923C8.77227 25.0419 7.29313 23.3739 5.475 23.3739C3.65688 23.3739 2.17773 25.0419 2.17773 27.0923C2.17773 27.4159 2.44008 27.6782 2.76367 27.6782C3.08727 27.6782 3.34961 27.4159 3.34961 27.0923C3.34961 25.6881 4.30305 24.5458 5.475 24.5458C6.64695 24.5458 7.60039 25.6881 7.60039 27.0923C7.60039 28.4964 6.64695 29.6387 5.475 29.6387Z" fill="#009AD2"/>
<path d="M11.7024 20.7335C12.026 20.7335 12.2884 20.4712 12.2884 20.1476C12.2884 19.824 12.026 19.5616 11.7024 19.5616C10.5214 19.5616 9.56055 18.4108 9.56055 16.9961C9.56055 15.5814 10.5213 14.4305 11.7024 14.4305C12.8835 14.4305 13.8443 15.5814 13.8443 16.9961C13.8443 17.3197 14.1066 17.582 14.4302 17.582C14.7538 17.582 15.0162 17.3197 15.0162 16.9961C15.0162 14.9352 13.5297 13.2587 11.7024 13.2587C9.87516 13.2587 8.38867 14.9352 8.38867 16.9961C8.38867 19.0569 9.87523 20.7335 11.7024 20.7335Z" fill="#009AD2"/>
<path d="M34.5242 20.8564H32.5062C33.2609 19.768 33.6781 18.4183 33.6781 16.9956C33.6781 16.0684 33.5038 15.1761 33.16 14.3432C33.0364 14.0441 32.6938 13.9018 32.3948 14.0252C32.0957 14.1487 31.9534 14.4913 32.0768 14.7903C32.3618 15.4807 32.5063 16.2226 32.5063 16.9956C32.5063 17.5375 32.4344 18.0656 32.2968 18.5646H22.9721C22.6485 18.5646 22.3862 18.827 22.3862 19.1506C22.3862 19.4742 22.6485 19.7365 22.9721 19.7365H31.8233C31.5959 20.1507 31.3151 20.5282 30.9862 20.8565H18.0242C18.0214 20.8565 18.0186 20.8566 18.0158 20.8566C17.0392 20.8582 16.1217 21.1525 15.3275 21.6663C16.4621 20.5229 17.1786 18.8531 17.1786 16.9962C17.1786 16.7161 17.1623 16.4403 17.1307 16.1698H22.9721C23.2957 16.1698 23.558 15.9075 23.558 15.5839C23.558 15.2603 23.2957 14.9979 22.9721 14.9979H16.8902C16.5198 13.7542 15.8134 12.6854 14.8948 11.9324H28.2023C29.1514 11.9324 30.0518 12.2899 30.8063 12.9661C31.0466 13.1815 31.4171 13.1625 31.6337 12.921C31.8497 12.68 31.8295 12.3096 31.5885 12.0936C30.6156 11.2214 29.4448 10.7605 28.2023 10.7605H17.1285L16.5256 9.10098C17.7848 7.98629 18.632 6.43379 18.0598 4.85879C16.9328 1.75738 13.8891 0.846212 13.2904 0.69504C12.9946 0.620274 12.6879 0.731915 12.5092 0.978868C12.1471 1.47918 10.3978 4.13215 11.5247 7.23363C12.096 8.80605 13.7389 9.45457 15.4241 9.50105L15.8817 10.7607H11.7234C11.7164 10.7607 11.7094 10.7606 11.7024 10.7606C8.68289 10.7606 6.22625 13.5579 6.22625 16.9964C6.22625 18.4528 6.66703 19.7942 7.40461 20.8567H5.47656C5.47367 20.8567 5.47078 20.8568 5.46789 20.8568C4.62305 20.8582 3.81305 21.0725 3.06023 21.4938C2.77789 21.6518 2.67711 22.0089 2.83516 22.2913C2.99328 22.5737 3.35031 22.6745 3.63266 22.5164C4.21086 22.1927 4.83109 22.0285 5.47609 22.0285C7.84945 22.0285 9.78039 24.3002 9.78039 27.0925C9.78039 29.8847 7.84945 32.1564 5.47609 32.1564C3.10273 32.1564 1.17188 29.8844 1.17188 27.0922C1.17188 25.9795 1.47352 24.9235 2.04422 24.0382C2.21953 23.7662 2.14117 23.4035 1.86922 23.2282C1.59727 23.053 1.23461 23.1313 1.0593 23.4032C0.36625 24.4782 0 25.7538 0 27.0922C0 30.5244 2.44773 33.3178 5.45992 33.3279C5.46547 33.3281 5.47102 33.3282 5.47656 33.3282H29.9898C30.3134 33.3282 30.5757 33.0658 30.5757 32.7422C30.5757 32.4186 30.3134 32.1563 29.9898 32.1563H21.2162C22.5985 31.0232 23.5002 29.1754 23.5002 27.0922C23.5002 26.616 23.453 26.1521 23.3639 25.7062H33.9934C34.317 25.7062 34.5793 25.4439 34.5793 25.1203C34.5793 24.7967 34.317 24.5343 33.9934 24.5343H23.0181C22.6197 23.5296 21.9941 22.6658 21.2163 22.0282H34.5242C36.8973 22.0282 38.8281 24.3 38.8281 27.0923C38.8281 27.7217 38.73 28.3248 38.5508 28.8813H31.356C31.0324 28.8813 30.7701 29.1436 30.7701 29.4672C30.7701 29.7908 31.0324 30.0532 31.356 30.0532H38.0138C37.2314 31.3264 35.9587 32.1563 34.5242 32.1563H32.5043C32.1807 32.1563 31.9184 32.4186 31.9184 32.7422C31.9184 33.0658 32.1807 33.3282 32.5043 33.3282H34.5242C37.5435 33.3282 40 30.5307 40 27.0923C40 23.6538 37.5436 20.8564 34.5242 20.8564V20.8564ZM12.6261 6.83324C11.8209 4.61715 12.8202 2.65871 13.2913 1.9141C14.13 2.18254 16.153 3.04254 16.9583 5.25887C17.3416 6.31363 16.645 7.31074 16.088 7.89629L14.5741 3.72918C14.4637 3.42504 14.1274 3.26809 13.8234 3.37855C13.5192 3.4891 13.3623 3.8252 13.4727 4.12934L14.9865 8.29621C14.1834 8.2048 13.0091 7.88738 12.6261 6.83324ZM11.6977 11.9322C11.6993 11.9322 11.7009 11.9323 11.7023 11.9323H11.7227C14.0868 11.9452 16.0067 14.2118 16.0067 16.9961C16.0067 19.7883 14.0758 22.06 11.7024 22.06C9.32906 22.06 7.39812 19.7884 7.39812 16.9961C7.39812 14.2057 9.32648 11.9353 11.6977 11.9322ZM10.9523 27.0922C10.9523 25.3103 10.2926 23.7007 9.23664 22.5632C9.97351 22.9882 10.8055 23.2288 11.6859 23.2318C11.6914 23.232 11.697 23.2321 11.7026 23.2321H13.7262C12.9886 24.2946 12.5479 25.6359 12.5479 27.0923C12.5479 29.1755 13.4496 31.0233 14.832 32.1564H8.66836C10.0506 31.0232 10.9523 29.1754 10.9523 27.0922V27.0922ZM22.3284 27.0922C22.3284 29.8844 20.3974 32.1561 18.0241 32.1561C15.6507 32.1561 13.7198 29.8845 13.7198 27.0922C13.7198 24.3 15.6507 22.0283 18.0241 22.0283C20.3974 22.0283 22.3284 24.3 22.3284 27.0922Z" fill="#009AD2"/>
<path d="M18.0247 23.2149C17.7011 23.2149 17.4387 23.4772 17.4387 23.8008C17.4387 24.1244 17.7011 24.3868 18.0247 24.3868C19.2725 24.3868 20.2877 25.6005 20.2877 27.0922C20.2877 28.584 19.2725 29.7977 18.0247 29.7977C16.7769 29.7977 15.7617 28.584 15.7617 27.0922C15.7617 26.7687 15.4994 26.5063 15.1758 26.5063C14.8522 26.5063 14.5898 26.7687 14.5898 27.0922C14.5898 29.2302 16.1307 30.9696 18.0247 30.9696C19.9187 30.9696 21.4596 29.2302 21.4596 27.0922C21.4596 24.9543 19.9187 23.2149 18.0247 23.2149V23.2149Z" fill="#009AD2"/>
<path d="M26.5 14.9979C26.1764 14.9979 25.9141 15.2602 25.9141 15.5838C25.9141 15.9074 26.1764 16.1697 26.5 16.1697H28.7177C29.0413 16.1697 29.3037 15.9074 29.3037 15.5838C29.3037 15.2602 29.0413 14.9979 28.7177 14.9979H26.5Z" fill="#009AD2"/>
<path d="M25.4609 28.8813C25.1373 28.8813 24.875 29.1436 24.875 29.4672C24.875 29.7908 25.1373 30.0532 25.4609 30.0532H27.2913C27.6148 30.0532 27.8772 29.7908 27.8772 29.4672C27.8772 29.1436 27.6148 28.8813 27.2913 28.8813H25.4609Z" fill="#009AD2"/>
</svg>
