<svg width="41" height="40" viewBox="0 0 41 40" fill="none" xmlns="http://www.w3.org/2000/svg">
<path d="M4.53169 19.9834C5.13693 20.5887 5.77466 21.046 6.43208 21.3466C6.47724 21.8075 6.54552 22.2652 6.63661 22.7163C6.69279 22.9943 6.93724 23.1863 7.21036 23.1863C7.2488 23.1863 7.28787 23.1824 7.32708 23.1745C7.64427 23.1104 7.84943 22.8013 7.78536 22.4841C7.62138 21.6727 7.53826 20.8375 7.53826 20.0019C7.53826 13.1302 13.1282 7.53978 19.9992 7.53978C24.3671 7.53978 28.4715 9.87369 30.7108 13.6307C30.8765 13.9087 31.2361 13.9997 31.5142 13.834C31.7922 13.6683 31.8832 13.3086 31.7175 13.0306C30.5295 11.0375 28.8414 9.3683 26.8354 8.20345C24.7675 7.00252 22.4036 6.36783 19.9992 6.36783C15.2634 6.36783 11.084 8.79533 8.63943 12.4714C7.34388 11.9077 6.03818 11.7057 5.33005 11.6341C4.5499 11.5552 3.16951 11.4945 2.68966 11.9743C2.00091 12.6631 2.41701 15.1812 2.46669 15.4661C2.66005 16.5751 3.18568 18.6368 4.53169 19.9834V19.9834ZM3.53865 12.8205C4.09474 12.6635 6.2024 12.7373 8.02677 13.4852C7.90513 13.7078 7.78958 13.9342 7.68021 14.1639C7.60185 14.1078 7.50849 14.0703 7.40599 14.0586C7.08513 14.0217 6.79412 14.253 6.75755 14.5745L6.69216 15.1488L5.69076 14.1473C5.46201 13.9185 5.09099 13.9185 4.86216 14.1473C4.63333 14.3761 4.63333 14.7471 4.86216 14.976L5.86365 15.9775L5.28935 16.0429C4.96779 16.0795 4.73685 16.3699 4.77349 16.6914C4.80755 16.9905 5.06099 17.2111 5.3549 17.2111C5.37701 17.2111 5.39943 17.2099 5.42193 17.2073L6.68521 17.0634C6.47818 18.0023 6.36826 18.9772 6.36646 19.977C6.02583 19.7585 5.68951 19.4837 5.36044 19.1546C4.29333 18.087 3.83536 16.3826 3.65732 15.4617C3.39771 14.1192 3.45716 13.1354 3.53865 12.8205V12.8205Z" fill="#009AD2"/>
<path d="M33.5823 21.1867C33.6162 20.793 33.6332 20.3967 33.6332 20.0018C33.6332 18.4364 33.37 16.9011 32.8508 15.4389C32.7426 15.1339 32.4076 14.9746 32.1026 15.0828C31.7976 15.191 31.6383 15.526 31.7465 15.831C32.2208 17.1671 32.4613 18.5703 32.4613 20.0018C32.4613 20.4689 32.4352 20.9378 32.3836 21.4007C31.2358 21.6689 29.6392 22.2211 28.529 23.3315C27.4222 24.4384 26.8062 25.6695 26.7476 26.8916C26.7015 27.8538 27.0084 28.7893 27.6198 29.578L26.7884 30.4094C26.7595 30.4383 26.7343 30.4695 26.7126 30.5024C24.721 31.7767 22.3955 32.4639 20.0004 32.4639C14.9402 32.4639 10.4194 29.4428 8.48288 24.7672C8.35905 24.4682 8.01631 24.3263 7.71733 24.4501C7.41835 24.5739 7.27639 24.9167 7.40022 25.2157C8.41983 27.6775 10.1268 29.7742 12.3365 31.279C14.6007 32.8209 17.2508 33.6359 20.0004 33.6359C23.1601 33.6359 26.2092 32.5427 28.6408 30.5479C29.334 31.0282 30.1272 31.2835 30.9456 31.2835C31.0084 31.2835 31.0715 31.282 31.1345 31.2789C32.3565 31.2203 33.5875 30.6043 34.6943 29.4974C36.0405 28.1511 36.5663 26.0895 36.7599 24.9804C36.8096 24.6956 37.2258 22.1775 36.5369 21.4886C36.0139 20.9655 34.4359 21.0796 33.5823 21.1867V21.1867ZM35.5694 24.976C35.3913 25.8969 34.9331 27.6013 33.8658 28.6688C32.9684 29.5662 32.0047 30.064 31.0786 30.1083C30.4375 30.1384 29.8264 29.9539 29.2853 29.5698L30.226 28.629L32.2384 28.8415C32.2594 28.8437 32.2801 28.8448 32.3007 28.8448C32.5966 28.8448 32.8508 28.6212 32.8826 28.3203C32.9166 27.9984 32.6833 27.7099 32.3615 27.676L31.2919 27.563L32.304 26.5507L33.8046 26.7217C33.8272 26.7242 33.8494 26.7255 33.8716 26.7255C34.1655 26.7255 34.419 26.5048 34.453 26.2058C34.4897 25.8842 34.2587 25.5939 33.9372 25.5573L33.3629 25.4919L34.3643 24.4903C34.5931 24.2615 34.5931 23.8905 34.3643 23.6617C34.1355 23.4328 33.7644 23.4328 33.5357 23.6617L32.5343 24.6632L32.4689 24.0889C32.4323 23.7674 32.142 23.536 31.8205 23.573C31.4989 23.6096 31.268 23.8999 31.3046 24.2215L31.4755 25.7221L30.4632 26.7344L30.3503 25.6647C30.3163 25.3428 30.0278 25.1096 29.7061 25.1435C29.3843 25.1774 29.1509 25.4659 29.1849 25.7878L29.3973 27.8003L28.4563 28.7414C27.5041 27.4025 27.8232 25.6948 29.3576 24.1602C30.425 23.0927 32.1291 22.6345 33.0501 22.4564C33.7818 22.3149 34.4069 22.2682 34.8752 22.2682C35.2639 22.2682 35.5446 22.3004 35.6886 22.3372C35.7698 22.6547 35.8283 23.637 35.5694 24.976V24.976Z" fill="#009AD2"/>
<path d="M15.5589 29.908C15.704 29.997 15.8669 30.0409 16.0289 30.0409C16.2356 30.0409 16.4411 29.9695 16.6075 29.8296L25.538 22.3154C25.723 22.1598 25.8388 21.9322 25.8559 21.691C25.8729 21.4499 25.7902 21.2082 25.6289 21.0281L22.4588 17.4873L24.1962 11.0981C24.3005 10.715 24.1451 10.315 23.8097 10.1027C23.4742 9.89042 23.0462 9.92121 22.7446 10.1793L14.4537 17.2742C14.0992 17.5775 14.037 18.1102 14.312 18.4871L16.7951 21.8887L15.1533 28.9379C15.0655 29.3154 15.2284 29.7053 15.5589 29.908V29.908ZM17.965 22.0325C18.0244 21.7776 17.9699 21.5101 17.8155 21.2987L15.4078 18.0003L22.8328 11.6463L21.2891 17.323C21.2089 17.6182 21.2828 17.9304 21.4869 18.1584L24.568 21.5999L16.4811 28.4043L17.965 22.0325Z" fill="#009AD2"/>
<path d="M30.5052 35.6343C27.3197 37.7799 23.664 38.8288 20.0246 38.8286C15.1591 38.8285 10.3236 36.9532 6.6867 33.3164C3.03928 29.669 1.08186 24.8194 1.17498 19.6609C1.18084 19.3374 0.923264 19.0703 0.599748 19.0645C0.279827 19.0569 0.0092015 19.3161 0.00334213 19.6398C-0.0446266 22.2982 0.423967 24.8948 1.39623 27.3575C2.40287 29.9075 3.90405 32.1911 5.85811 34.1452C9.72162 38.0086 14.8564 40.0004 20.0255 40C23.8909 39.9998 27.7762 38.8854 31.1597 36.6064C31.4282 36.4257 31.4992 36.0615 31.3184 35.7931C31.1377 35.5246 30.7736 35.4535 30.5052 35.6343V35.6343Z" fill="#009AD2"/>
<path d="M40.0014 19.6398C39.908 14.4348 37.8288 9.54047 34.1467 5.85836C30.4319 2.14367 25.4936 0.063674 20.2415 0.00140833C15.2446 -0.0571854 10.4865 1.71422 6.76544 5.00578L6.61943 3.07578C6.59505 2.75313 6.3149 2.51102 5.99099 2.53571C5.66833 2.56016 5.42654 2.84149 5.45091 3.16422L5.68935 6.31672C5.71115 6.60547 5.94068 6.835 6.22943 6.8568L9.38201 7.09524C9.39701 7.09641 9.41193 7.09696 9.42677 7.09696C9.73029 7.09696 9.98716 6.86281 10.0104 6.55508C10.0349 6.23235 9.79302 5.95094 9.47036 5.92656L7.64911 5.78883C15.1147 -0.728436 26.2347 -0.396092 33.318 6.68711C36.7844 10.1534 38.7419 14.7609 38.8297 19.6608C38.8354 19.9809 39.0966 20.2363 39.4153 20.2363C39.4189 20.2363 39.4225 20.2363 39.426 20.2362C39.7496 20.2304 40.0072 19.9634 40.0014 19.6398V19.6398Z" fill="#009AD2"/>
<path d="M35.0434 32.9583C35.0216 32.6696 34.7921 32.44 34.5033 32.4182L31.3508 32.1798C31.0286 32.1558 30.7469 32.3972 30.7224 32.72C30.698 33.0427 30.9398 33.3241 31.2625 33.3485L33.1398 33.4905C32.9076 33.7168 32.6687 33.9381 32.4274 34.1504C32.1845 34.3643 32.1608 34.7345 32.3746 34.9775C32.4905 35.1091 32.6522 35.1764 32.8147 35.1764C32.9522 35.1764 33.0903 35.1282 33.2016 35.0304C33.4624 34.8008 33.7205 34.5615 33.9711 34.3169L34.1135 36.1994C34.1368 36.5071 34.3936 36.7412 34.6972 36.7412C34.7119 36.7412 34.7269 36.7407 34.742 36.7395C35.0647 36.715 35.3065 36.4337 35.2821 36.111L35.0434 32.9583Z" fill="#009AD2"/>
</svg>
