<svg width="40" height="40" viewBox="0 0 40 40" fill="none" xmlns="http://www.w3.org/2000/svg">
<path d="M39.9442 21.358C39.8009 20.3226 38.7336 19.4942 36.7344 18.8889C35.1175 18.403 33.0705 18.1083 30.8403 18.0605V9.56192C30.8403 9.38669 30.7845 9.21943 30.673 9.08402C30.4102 8.16009 29.3429 7.41138 27.495 6.85384C25.7029 6.31222 23.3612 6.01752 20.9 6.01752C18.4468 6.01752 16.129 6.31222 14.3767 6.85384C12.9351 7.29987 11.2067 8.12823 11.2067 9.55395C11.2067 9.64157 11.2147 9.72918 11.2306 9.8168L11.3182 13.4488C6.14894 12.4532 1.15492 15.8542 0.167264 21.0314C0.0557547 21.6129 0 22.2103 0 22.8076C0 28.0645 4.27718 32.3417 9.53405 32.3417C11.7244 32.3417 13.8431 31.585 15.5476 30.2071C17.045 30.5575 18.7973 30.7487 20.6531 30.7646C21.0593 32.9709 25.8383 33.9825 30.2987 33.9825C32.7519 33.9825 35.0617 33.6798 36.8299 33.1302C38.2796 32.6842 40 31.8479 40 30.4221V21.6686C40 21.5651 39.9841 21.4536 39.9442 21.358ZM14.8546 8.37514C16.4636 7.88132 18.6141 7.60254 20.908 7.60254C23.186 7.60254 25.4162 7.88132 27.041 8.37514C28.7694 8.90083 29.1438 9.44245 29.1438 9.55395C29.1438 9.66546 28.7694 10.215 27.0331 10.7328C25.4162 11.2186 23.186 11.5054 20.908 11.5054C18.7097 11.5054 16.6229 11.2505 15.0378 10.7885C13.3254 10.2947 12.8475 9.74511 12.8076 9.56988C12.8076 9.55395 12.8076 9.54599 12.7997 9.54599C12.8076 9.43448 13.174 8.89286 14.8546 8.37514ZM29.2473 11.5452V13.5842C29.1756 13.6957 29.1358 13.8311 29.1438 13.9665C29.1438 14.0701 28.7694 14.6197 27.0331 15.1453C25.4162 15.6312 23.178 15.918 20.9 15.918C18.9327 15.918 17.0052 15.7109 15.4759 15.3206C15.452 15.3126 15.4361 15.3126 15.4122 15.3046C14.6555 14.7073 13.8192 14.2373 12.9192 13.8949L12.8634 11.6487C13.413 11.9275 13.9865 12.1505 14.5838 12.3098C16.3122 12.8116 18.5504 13.0824 20.9 13.0824C23.3612 13.0824 25.7029 12.7877 27.4871 12.2461C28.1004 12.0788 28.6898 11.8399 29.2473 11.5452ZM14.8785 28.6778C11.6368 31.6328 6.61091 31.3938 3.66388 28.1521C0.716846 24.9104 0.947829 19.8845 4.18957 16.9375C5.65512 15.6073 7.55874 14.8666 9.53405 14.8666C10.3305 14.8666 11.127 14.9861 11.8917 15.217C14.6476 16.0852 16.7264 18.3712 17.3238 21.1987C17.4273 21.7244 17.4831 22.266 17.4831 22.7997C17.4831 25.0458 16.5352 27.1804 14.8785 28.6778ZM16.9016 28.853C17.5468 28.0645 18.0645 27.1804 18.4309 26.2326C19.1079 26.2883 19.8248 26.3281 20.5575 26.3361V26.4795L20.5974 29.1796C19.3628 29.1637 18.1282 29.0522 16.9016 28.853ZM19.0203 21.8598C19.4902 21.8917 19.9761 21.9076 20.4699 21.9156C20.4699 21.9315 20.4779 21.9554 20.4779 21.9713L20.5257 24.7351C19.9602 24.7272 19.4106 24.7033 18.8769 24.6635C18.9964 24.0502 19.0601 23.4209 19.0601 22.7997C19.0681 22.489 19.0522 22.1784 19.0203 21.8598ZM20.9797 20.3305C20.9558 20.3305 20.9319 20.3305 20.908 20.3305C20.1434 20.3305 19.4026 20.2987 18.7176 20.2509C18.415 19.1836 17.9371 18.18 17.2919 17.2879C18.4867 17.4393 19.6894 17.5189 20.9 17.5189C23.3612 17.5189 25.7029 17.2242 27.495 16.6826C28.1083 16.4914 28.6898 16.2604 29.2473 15.9657V18.0765C25.8224 18.172 22.2859 18.8889 20.9797 20.3305ZM22.047 21.5571C22.1266 21.3341 22.7081 20.8164 24.3409 20.3544C25.8941 19.9164 27.9172 19.6774 30.0438 19.6774H30.1474C32.4253 19.6774 34.6555 19.9402 36.2804 20.4341C37.961 20.9438 38.3592 21.4536 38.3831 21.589V21.597C38.3751 21.7164 37.9769 22.266 36.2087 22.7917C34.5759 23.2776 32.4253 23.5404 30.1474 23.5404C27.9968 23.5404 25.9419 23.2935 24.3648 22.8554C22.8435 22.4253 22.2302 21.9395 22.0789 21.6925C22.0709 21.6447 22.0629 21.597 22.047 21.5571ZM38.407 30.4221C38.407 30.5336 38.0486 31.0832 36.36 31.6089C34.7431 32.1107 32.5926 32.3895 30.2987 32.3895C27.9968 32.3895 25.8463 32.1187 24.2533 31.6328C22.5647 31.1151 22.2222 30.5814 22.2222 30.462C22.2222 30.454 22.2222 30.454 22.2222 30.446L22.1824 28.1441C24.0781 29.1079 27.2401 29.546 30.1394 29.546C32.6006 29.546 34.9263 29.2513 36.7105 28.7097C37.2999 28.5344 37.8654 28.2955 38.407 28.0087V30.4221ZM38.3353 26.0095C38.3353 26.121 37.9689 26.6627 36.2485 27.1884C34.6157 27.6822 32.4492 27.953 30.1394 27.953C25.7666 27.953 22.8037 26.9733 22.1505 26.2007L22.1346 25.5157L22.1027 23.6917C22.6842 23.9864 23.2895 24.2174 23.9188 24.3847C25.6312 24.8626 27.8375 25.1334 30.1314 25.1334C32.5528 25.1334 34.8626 24.8467 36.6388 24.321C37.2521 24.1457 37.8415 23.9148 38.399 23.6201V25.667H38.407C38.407 25.7706 38.3353 25.8901 38.3353 26.0095Z" fill="#009AD2"/>
<path d="M13.5087 27.0609C13.3494 26.6468 12.8954 26.4476 12.4812 26.599C12.4812 26.591 12.4812 26.591 12.4812 26.591C10.9759 27.1645 9.27933 26.7981 8.1483 25.6591C7.91732 25.452 7.72616 25.2051 7.58279 24.9343H11.6768C12.1149 24.9343 12.4733 24.5759 12.4733 24.1378C12.4733 23.6997 12.1149 23.3413 11.6768 23.3413H7.00135C6.95356 23.0546 6.94559 22.7599 6.97745 22.4652H12.091C12.529 22.4652 12.8875 22.1067 12.8875 21.6687C12.8875 21.2306 12.529 20.8722 12.091 20.8722H7.44739C7.63855 20.5297 7.86953 20.219 8.14034 19.9323C9.27933 18.8013 10.9759 18.4349 12.4733 19.0163C12.8875 19.1756 13.3415 18.9685 13.5008 18.5623C13.6601 18.1482 13.453 17.6941 13.0468 17.5348C10.9599 16.7304 8.59434 17.2322 7.00931 18.8172C6.41991 19.3986 5.97387 20.0996 5.6951 20.8801H4.56407C4.126 20.8801 3.76758 21.2386 3.76758 21.6766C3.76758 22.1147 4.126 22.4731 4.56407 22.4731H5.36057C5.34464 22.7678 5.34464 23.0546 5.3765 23.3493H4.56407C4.126 23.3493 3.76758 23.7077 3.76758 24.1458C3.76758 24.5838 4.126 24.9423 4.56407 24.9423H5.78271C6.05352 25.6352 6.47566 26.2724 7.00931 26.7981C8.58638 28.3831 10.952 28.8929 13.0468 28.0884C13.4609 27.9291 13.6601 27.4751 13.5087 27.0609Z" fill="#009AD2"/>
</svg>
