<svg width="28" height="28" viewBox="0 0 28 28" fill="none" xmlns="http://www.w3.org/2000/svg">
<g clip-path="url(#clip0)">
<path d="M20.3412 12.121V6.82205C20.3412 6.67038 20.2712 6.53024 20.1721 6.41937L14.2312 0.180939C14.1203 0.0643005 13.9627 0 13.8052 0H4.38617C2.64728 0 1.2583 1.41803 1.2583 3.15714V20.968C1.2583 22.7071 2.64728 24.1018 4.38617 24.1018H11.8211C13.2274 26.4361 15.7836 28 18.6955 28C23.119 28 26.7313 24.4052 26.7313 19.9759C26.7373 16.1068 23.9594 12.8738 20.3412 12.121ZM14.3889 2.04843L18.3746 6.2442H15.7894C15.019 6.2442 14.3889 5.60825 14.3889 4.83792V2.04843ZM4.38617 22.9346C3.29498 22.9346 2.42554 22.0591 2.42554 20.968V3.15714C2.42554 2.05997 3.29498 1.16724 4.38617 1.16724H13.2216V4.83792C13.2216 6.25595 14.3713 7.41144 15.7894 7.41144H19.174V11.9691C18.9991 11.9633 18.8589 11.9458 18.7072 11.9458C16.6706 11.9458 14.7973 12.7279 13.385 13.9534H5.9736C5.65253 13.9534 5.38998 14.216 5.38998 14.5368C5.38998 14.8579 5.65253 15.1205 5.9736 15.1205H12.2996C11.8852 15.7041 11.5408 16.2877 11.2725 16.9296H5.9736C5.65253 16.9296 5.38998 17.1922 5.38998 17.5132C5.38998 17.8341 5.65253 18.0969 5.9736 18.0969H10.8931C10.7472 18.6805 10.6714 19.3282 10.6714 19.9759C10.6714 21.0263 10.8756 22.0651 11.2433 22.9406H4.38617V22.9346ZM18.7015 26.8387C14.9199 26.8387 11.8444 23.7632 11.8444 19.9817C11.8444 16.2001 14.9139 13.1246 18.7015 13.1246C22.4888 13.1246 25.5583 16.2001 25.5583 19.9817C25.5583 23.7632 22.483 26.8387 18.7015 26.8387Z" fill="#009AD2"/>
<path d="M5.97375 12.1968H11.8853C12.2064 12.1968 12.469 11.934 12.469 11.6132C12.469 11.2921 12.2064 11.0295 11.8853 11.0295H5.97375C5.65268 11.0295 5.39014 11.2921 5.39014 11.6132C5.39014 11.934 5.65268 12.1968 5.97375 12.1968Z" fill="#009AD2"/>
<path d="M21.6885 19.859L19.2901 22.4443V16.0717C19.2901 15.7506 19.0273 15.4881 18.7065 15.4881C18.3854 15.4881 18.1229 15.7506 18.1229 16.0717V22.4443L15.7068 19.859C15.485 19.6258 15.1116 19.6082 14.8781 19.83C14.6447 20.0517 14.6271 20.4194 14.8491 20.6529L18.263 24.3235C18.3739 24.4402 18.5255 24.5102 18.689 24.5102C18.8524 24.5102 19.0041 24.4402 19.1149 24.3235L22.5348 20.6529C22.7566 20.4194 22.7448 20.046 22.5113 19.83C22.2721 19.6082 21.9104 19.6258 21.6885 19.859Z" fill="#009AD2"/>
</g>
<defs>
<clipPath id="clip0">
<rect width="28" height="28" fill="white"/>
</clipPath>
</defs>
</svg>
