<svg width="33" height="33" viewBox="0 0 33 33" fill="none" xmlns="http://www.w3.org/2000/svg">
<path d="M32.7986 31.8264L22.7577 21.7855C24.8433 19.4699 26.125 16.4168 26.125 13.0625C26.125 5.85988 20.2652 0 13.0625 0C5.85989 0 0 5.85989 0 13.0625C0 20.2652 5.85989 26.125 13.0625 26.125C16.4169 26.125 19.4699 24.8433 21.7855 22.7577L31.8264 32.7986C31.9607 32.9328 32.1367 33 32.3125 33C32.4884 33 32.6643 32.9328 32.7987 32.7986C33.0672 32.53 33.0672 32.0949 32.7986 31.8264ZM13.0625 24.75C6.61856 24.75 1.37504 19.5071 1.37504 13.0625C1.37504 6.61792 6.61856 1.37498 13.0625 1.37498C19.5065 1.37498 24.75 6.61785 24.75 13.0625C24.75 19.5072 19.5065 24.75 13.0625 24.75Z" fill="white"/>
</svg>
