<svg width="11" height="11" viewBox="0 0 11 11" fill="none" xmlns="http://www.w3.org/2000/svg">
<path d="M0.503969 2.177L0.503881 2.1799C0.374445 6.43515 4.02256 10.4995 8.80799 10.4995C9.69506 10.4995 10.4995 9.74892 10.4995 8.78011C10.4995 7.8324 9.72782 7.06075 8.78054 7.06075C7.82475 7.06075 7.04272 7.84751 7.06267 8.81551L7.07739 9.52938L6.40129 9.29978C4.19665 8.55111 2.45038 6.80447 1.70189 4.59948L1.47239 3.92341L2.1862 3.93815C3.15539 3.95817 3.94049 3.17414 3.94049 2.21989C3.94049 1.27219 3.16885 0.500539 2.22157 0.500539C1.28906 0.500539 0.526814 1.24888 0.503969 2.177Z" fill="#009AD2" stroke="#009AD2" stroke-width="1.00108"/>
</svg>
