<svg width="40" height="50" viewBox="0 0 40 50" fill="none" xmlns="http://www.w3.org/2000/svg">
<path d="M39.7867 38.4734L29.4772 28.2431C32.288 25.1297 33.8308 21.1265 33.8308 16.9154C33.8308 7.58822 26.2426 0 16.9154 0C7.58822 0 0 7.58822 0 16.9154C0 26.2426 7.58822 33.8308 16.9154 33.8308C18.6303 33.8308 20.3226 33.575 21.9452 33.0702C22.3257 32.9519 22.5382 32.5475 22.4199 32.167C22.3016 31.7864 21.8971 31.574 21.5167 31.6923C20.2608 32.0829 18.9589 32.3098 17.6369 32.3705V26.8905H20.7711C21.1696 26.8905 21.4926 26.5675 21.4926 26.169C21.4926 25.7706 21.1696 25.4475 20.7711 25.4475H17.6369V17.6369H25.4372C25.4107 18.6635 25.3287 19.6813 25.1906 20.6713C25.1356 21.066 25.4108 21.4306 25.8055 21.4856C25.8394 21.4903 25.8729 21.4926 25.9061 21.4926C26.2603 21.4926 26.5694 21.2316 26.6197 20.8708C26.7671 19.8152 26.8538 18.7304 26.8807 17.6369H32.371C32.2073 21.2 30.833 24.5639 28.4515 27.2252L24.5398 23.3435C24.3227 23.128 23.9933 23.0729 23.7178 23.2059C23.4424 23.339 23.2808 23.6312 23.3145 23.9353L25.6867 45.2836C25.7171 45.5575 25.9009 45.7901 26.1603 45.8831C26.2397 45.9116 26.322 45.9255 26.4037 45.9255C26.5885 45.9255 26.7699 45.8544 26.9069 45.7211L31.5904 41.1641L35.3006 48.8459C35.4251 49.1036 35.6827 49.2537 35.9509 49.2537C36.0561 49.2537 36.1631 49.2307 36.2641 49.1818C36.6229 49.0084 36.7733 48.5772 36.6 48.2184L32.8897 40.5366L39.3707 39.7012C39.644 39.6659 39.8733 39.4781 39.9618 39.2171C40.0503 38.956 39.9822 38.6675 39.7867 38.4734V38.4734ZM32.3705 16.1939H26.8813C26.8135 13.4076 26.3539 10.7396 25.5479 8.3833H29.8161C31.3155 10.6429 32.2378 13.3169 32.3705 16.1939ZM28.7328 6.94033H24.9939C24.7187 6.29801 24.4157 5.68503 24.0852 5.10659C23.4502 3.99541 22.7394 3.05343 21.9711 2.29202C24.6259 3.21245 26.9543 4.83656 28.7328 6.94033V6.94033ZM1.46039 17.6369H6.94956C7.01738 20.4231 7.47692 23.0913 8.28296 25.4475H4.01493C2.51539 23.1878 1.59314 20.5139 1.46039 17.6369V17.6369ZM8.5224 10.0443C8.13463 9.95287 7.74608 10.1932 7.6546 10.581C7.23277 12.3712 6.9965 14.2561 6.94946 16.1939H1.46039C1.59314 13.3169 2.51539 10.6429 4.01484 8.3833H16.1939V16.1939H8.39311C8.43967 14.3682 8.66266 12.5945 9.05919 10.9121C9.15058 10.5241 8.91018 10.1357 8.5224 10.0443ZM10.4197 6.94033C11.8884 3.81426 13.9713 1.85249 16.1939 1.50098V6.94033H10.4197ZM17.6369 1.50002C19.5729 1.80112 21.3958 3.30865 22.8323 5.8225C23.0371 6.18084 23.2305 6.55399 23.4126 6.94023H17.6369V1.50002ZM11.8843 2.28336C10.7009 3.44534 9.65937 5.02011 8.83813 6.94033H5.09803C6.88213 4.83002 9.21936 3.20225 11.8843 2.28336V2.28336ZM5.09813 26.8905H8.83707C9.1122 27.5327 9.41522 28.1458 9.74576 28.7242C10.3808 29.8353 11.0916 30.7773 11.8598 31.5387C9.20493 30.6183 6.87664 28.9942 5.09813 26.8905V26.8905ZM16.1939 32.3307C14.2579 32.0295 12.435 30.5221 10.9985 28.0082C10.7937 27.6498 10.6004 27.2768 10.4183 26.8905H16.1939V32.3307ZM16.1939 25.4475H9.81406C8.95597 23.132 8.46449 20.4541 8.39273 17.6369H16.1939V25.4475ZM17.6369 8.3833H24.0168C24.8748 10.6989 25.3663 13.3768 25.438 16.1939H17.6369V8.3833ZM31.7125 39.2334C31.5577 39.2533 31.4135 39.323 31.3016 39.4319L26.9579 43.6582L24.9744 25.8077L37.7231 38.4587L31.7125 39.2334Z" fill="#009AD2"/>
</svg>
