<svg width="40" height="40" viewBox="0 0 40 40" fill="none" xmlns="http://www.w3.org/2000/svg">
<path d="M39.6376 18.814C39.4182 18.7228 39.1657 18.7732 38.9977 18.9416L37.2394 20.7056V8.71161C37.2394 8.38627 36.9765 8.12261 36.6523 8.12261H32.1412L33.7788 6.47984C33.779 6.47961 33.7792 6.47929 33.7795 6.47906L35.3573 4.89617C35.6953 4.55704 35.8815 4.1059 35.8815 3.62624C35.8815 3.14658 35.6953 2.6956 35.3573 2.35631L33.5327 0.525905C33.1947 0.186771 32.745 0 32.2669 0C31.7887 0 31.3391 0.186771 31.001 0.525905L29.4224 2.10958L27.5149 4.02321L23.4288 8.12253H5.20469V2.29564C5.20469 1.9703 4.9418 1.70665 4.61758 1.70665C2.07148 1.7068 0 3.78479 0 6.33924V31.3559C0 31.3994 0.005 31.4417 0.0139063 31.4824C0.095 32.5663 0.562422 33.5734 1.34359 34.3379C2.17859 35.1549 3.28086 35.6048 4.44742 35.6048H22.3879L19.0091 38.9945C18.8412 39.163 18.7909 39.4163 18.8818 39.6364C18.9727 39.8565 19.1868 40 19.4242 40H39.4129C39.7371 40 40 39.7363 40 39.411V19.3582C40 19.12 39.8569 18.9052 39.6376 18.814ZM31.8315 1.35897C32.0715 1.11804 32.4625 1.11804 32.7025 1.35897L34.5271 3.18945C34.7673 3.4303 34.7673 3.82241 34.5271 4.06334L33.3637 5.23052L30.668 2.52615L31.8315 1.35897ZM29.8377 3.35913L32.5334 6.06343L31.4561 7.14416L28.7605 4.43986L29.8377 3.35913ZM38.8259 25.9764H37.7427C37.4184 25.9764 37.1556 26.2401 37.1556 26.5654C37.1556 26.8908 37.4184 27.1544 37.7427 27.1544H38.8259V28.9293H37.7427C37.4184 28.9293 37.1556 29.193 37.1556 29.5183C37.1556 29.8437 37.4184 30.1073 37.7427 30.1073H38.8259V31.8822H37.7427C37.4184 31.8822 37.1556 32.1458 37.1556 32.4712C37.1556 32.7965 37.4184 33.0602 37.7427 33.0602H38.8259V34.8351H37.7427C37.4184 34.8351 37.1556 35.0988 37.1556 35.4241C37.1556 35.7494 37.4184 36.0131 37.7427 36.0131H38.8259V38.8222H20.8416L26.7719 32.8729C27.0012 32.6428 27.0012 32.27 26.7719 32.0399C26.7455 32.0135 26.7173 31.9906 26.6877 31.9703C26.4591 31.8132 26.1445 31.8363 25.9415 32.0399L23.5621 34.427H4.4475C2.66688 34.427 1.23344 33.0323 1.17703 31.2492C1.18039 31.1373 1.18906 31.0263 1.20297 30.9166C1.20305 30.9159 1.20313 30.9153 1.2032 30.9147C1.20977 30.8626 1.21766 30.8107 1.22664 30.7591C1.22766 30.7532 1.22875 30.7474 1.22977 30.7415C1.23797 30.6955 1.24719 30.6497 1.25727 30.6041C1.26008 30.5914 1.26305 30.5787 1.26602 30.5661C1.27492 30.5275 1.28453 30.4892 1.29484 30.451C1.30047 30.4303 1.30633 30.4099 1.31234 30.3893C1.32094 30.3593 1.32984 30.3295 1.3393 30.2999C1.34875 30.2704 1.35883 30.2411 1.36906 30.2119C1.37617 30.1914 1.3832 30.171 1.39086 30.1507C1.40516 30.1121 1.42031 30.0739 1.43594 30.0361C1.44039 30.0252 1.44477 30.0141 1.44938 30.0033C1.46945 29.9562 1.49031 29.9097 1.51234 29.8638C1.51328 29.8619 1.51414 29.8599 1.51508 29.8579C1.9743 28.9046 2.8575 28.1938 3.91742 27.9732C3.92039 27.9726 3.92336 27.9719 3.92633 27.9713C3.97492 27.9613 4.02398 27.9528 4.07336 27.9449C4.08156 27.9435 4.08977 27.9419 4.09813 27.9406C4.14273 27.9338 4.18781 27.9285 4.23289 27.9234C4.24555 27.922 4.25812 27.92 4.27086 27.9188C4.31437 27.9144 4.35828 27.9115 4.40219 27.9087C4.41609 27.9079 4.43 27.9064 4.44391 27.9057C4.50141 27.9028 4.55937 27.9013 4.61758 27.9013C4.9418 27.9013 5.20469 27.6376 5.20469 27.3123V23.0416C5.20469 22.7163 4.9418 22.4526 4.61758 22.4526C4.29336 22.4526 4.03047 22.7163 4.03047 23.0416V26.7604C3.03906 26.8861 2.11883 27.3298 1.3932 28.0406C1.31688 28.1154 1.24453 28.1931 1.17406 28.2722V6.33924C1.17406 4.63526 2.41047 3.21531 4.03039 2.93488V8.71161V20.6857V20.6858C4.03039 21.0111 4.29328 21.2748 4.6175 21.2748C4.94172 21.2748 5.20461 21.0111 5.20461 20.6858V20.6857V9.30061H22.2546L19.009 12.5567C18.7797 12.7868 18.7797 13.1596 19.009 13.3897C19.2383 13.6196 19.61 13.6196 19.8392 13.3897L24.0871 9.1281C24.0873 9.12795 24.0873 9.12779 24.0875 9.12771L27.9301 5.27277L30.6256 7.97715L30.3094 8.29441C30.3091 8.29465 30.3088 8.29488 30.3086 8.29512L18.4705 20.1715L15.7748 17.4672L18.1083 15.1262C18.3376 14.8961 18.3376 14.5233 18.1083 14.2933C17.879 14.0633 17.5073 14.0633 17.278 14.2933L14.5294 17.0507C14.5147 17.0654 14.5009 17.081 14.488 17.097C14.4838 17.1023 14.4799 17.1081 14.4759 17.1136C14.4676 17.1247 14.4595 17.1358 14.4519 17.1474C14.4476 17.1542 14.4437 17.1611 14.4396 17.168C14.4331 17.179 14.4269 17.1901 14.4212 17.2015C14.4174 17.2089 14.4141 17.2163 14.4106 17.224C14.4054 17.2355 14.4005 17.2473 14.3961 17.259C14.3945 17.2632 14.3925 17.2671 14.391 17.2712L13.2472 20.5219L12.4673 22.7383C12.457 22.7678 12.4496 22.7977 12.4441 22.8279H10.4916C10.1673 22.8279 9.90445 23.0916 9.90445 23.4169C9.90445 23.7422 10.1673 24.0059 10.4916 24.0059H26.7505C27.0748 24.0059 27.3376 23.7422 27.3376 23.4169C27.3376 23.0916 27.0748 22.8279 26.7505 22.8279H15.0854L18.6659 21.5599C18.6688 21.5588 18.6716 21.5573 18.6746 21.5562C18.6885 21.5511 18.7022 21.5453 18.7157 21.5391C18.7211 21.5366 18.7265 21.5342 18.7317 21.5316C18.7458 21.5246 18.7596 21.5168 18.7732 21.5085C18.7776 21.5058 18.7821 21.5034 18.7864 21.5007C18.8005 21.4916 18.8143 21.4816 18.8278 21.4711C18.8312 21.4685 18.8347 21.4663 18.838 21.4636C18.8543 21.4504 18.8703 21.4362 18.8855 21.421L30.967 9.30069H36.0651V21.8837L27.667 30.3089C27.4377 30.539 27.4377 30.9119 27.667 31.1419C27.6812 31.1562 27.6962 31.1697 27.7116 31.1823C27.8192 31.2704 27.9507 31.3144 28.0821 31.3144C28.2135 31.3144 28.3451 31.2704 28.4527 31.1823C28.468 31.1698 28.483 31.1562 28.4973 31.1419C28.4975 31.1417 28.4973 31.1419 28.4975 31.1417L38.8259 20.7799V25.9764ZM17.3966 20.76L15.7149 21.3556L14.5945 20.2315L15.1881 18.5444L17.3966 20.76Z" fill="#009AD2"/>
</svg>
