<svg width="21" height="21" viewBox="0 0 21 21" fill="none" xmlns="http://www.w3.org/2000/svg">
<path d="M10.5317 3.81818C12.7312 3.81818 14.7208 4.95021 15.861 6.51005L18.5636 3.7799C16.9473 1.6717 13.8363 0 10.5317 0C4.74567 0 0 4.69641 0 10.5C0 16.3036 4.74567 21 10.5317 21C15.3282 21 19.3631 17.7737 20.6003 13.3636C20.8667 12.4471 21 11.4926 21 10.5V9.54545H11.4834V13.3629H16.5272C15.4804 15.6158 13.1773 17.1818 10.5317 17.1818C6.85841 17.1818 3.80665 14.1844 3.80665 10.5C3.80665 6.81555 6.85841 3.81818 10.5317 3.81818Z" fill="white"/>
</svg>
