<svg width="296" height="38" viewBox="0 0 296 38" fill="none" xmlns="http://www.w3.org/2000/svg">
<path d="M249.421 0.589111H244.704V19.1473H249.421V0.589111Z" fill="#009AD2"/>
<path d="M202.252 9.72107H197.535V18.8529H202.252V9.72107Z" fill="#009AD2"/>
<path d="M197.535 0.589111V5.30229H209.622V18.8527H214.339V0.589111H197.535Z" fill="#009AD2"/>
<path d="M219.94 18.8527H224.657L232.027 0.589111H227.31L219.94 18.8527Z" fill="#009AD2"/>
<path d="M232.322 12.6666L234.681 18.8527H239.692L234.681 6.48059L232.322 12.6666Z" fill="#009AD2"/>
<path d="M268.878 2.65116C267.994 1.76744 266.814 1.17829 265.635 0.589147C264.456 0.294574 263.277 0 261.803 0C260.329 0 259.149 0.294574 257.97 0.589147C256.791 1.17829 255.612 1.76744 254.727 2.65116C253.843 3.53488 253.253 4.4186 252.664 5.5969C252.369 6.18605 252.074 6.77519 252.074 7.36434H256.791C257.086 6.77519 257.381 5.89147 257.675 5.5969C257.97 5.00775 258.56 4.71318 259.444 4.12403C260.034 3.82946 260.918 3.53488 261.803 3.53488C262.687 3.53488 263.571 3.82946 264.161 4.12403C264.751 4.4186 265.34 5.00775 265.93 5.5969C266.225 6.18605 266.814 6.77519 266.814 7.36434C267.109 7.95349 267.109 8.83721 267.109 9.42636C267.109 10.0155 267.109 10.8992 266.814 11.4884C266.519 12.0775 266.225 12.9612 265.93 13.2558C265.635 13.845 265.045 14.1395 264.161 14.7287C263.571 15.0233 262.687 15.3178 261.803 15.3178C260.918 15.3178 260.034 15.0233 259.444 14.7287C258.855 14.4341 258.265 13.845 257.675 13.2558C257.381 12.9612 257.086 12.3721 256.791 11.7829H252.074C252.074 12.3721 252.369 12.6667 252.664 13.2558C253.253 14.4341 253.843 15.6124 254.727 16.2016C255.612 17.0853 256.791 17.6744 257.97 18.2636C259.149 18.8527 260.329 18.8527 261.803 18.8527C263.277 18.8527 264.456 18.5581 265.635 18.2636C266.814 17.6744 267.994 17.0853 268.878 16.2016C269.762 15.3178 270.352 14.4341 270.942 13.2558C271.531 12.0775 271.826 10.6047 271.826 9.42636C271.826 7.95349 271.531 6.77519 270.942 5.5969C270.647 4.4186 269.762 3.53488 268.878 2.65116Z" fill="#009AD2"/>
<path d="M290.104 13.5504C289.809 14.1395 289.22 14.4341 288.335 15.0233C287.745 15.3178 286.861 15.6124 285.977 15.6124C285.092 15.6124 284.208 15.3178 283.618 15.0233C283.029 14.7287 282.439 14.1395 281.849 13.5504C281.849 12.9612 281.555 12.3721 281.26 11.7829C280.965 11.1938 280.965 10.3101 280.965 9.72093C280.965 9.13178 280.965 8.24806 281.26 7.65892C281.555 7.06977 281.849 6.18605 282.144 5.89147C282.439 5.30233 283.029 5.00775 283.913 4.4186C284.503 4.12403 285.387 3.82946 286.271 3.82946C287.156 3.82946 288.04 4.12403 288.63 4.4186C289.22 4.71318 289.809 5.30233 290.399 5.89147C290.694 6.48062 291.283 7.06977 291.283 7.65892H296C296 7.06977 295.705 6.48062 295.41 5.89147C294.821 4.71318 294.231 3.82946 293.347 2.94574C292.462 2.06202 291.283 1.47287 290.104 0.883721C288.925 0.294574 287.451 0 286.271 0C284.797 0 283.618 0.294574 282.439 0.589147C281.26 1.17829 280.081 1.76744 279.196 2.65116C278.312 3.53488 277.722 4.4186 277.133 5.5969C276.543 6.77519 276.248 7.95349 276.248 9.42636C276.248 10.8992 276.543 12.0775 277.133 13.2558C277.722 14.4341 278.312 15.6124 279.196 16.2016C280.081 17.0853 281.26 17.6744 282.439 18.2636C283.618 18.8527 285.092 18.8527 286.271 18.8527C287.745 18.8527 288.925 18.5581 290.104 18.2636C291.283 17.6744 292.462 17.0853 293.347 16.2016C294.231 15.3178 294.821 14.4341 295.41 13.2558C295.705 12.9612 295.705 12.3721 296 11.7829H291.283C290.694 12.6667 290.399 13.2558 290.104 13.5504Z" fill="#009AD2"/>
<path d="M97.8909 36.2327H98.4805V32.4032H101.134V36.2327H101.723V32.1086H97.8909V36.2327Z" fill="white"/>
<path d="M106.145 31.8141C105.556 31.8141 104.966 32.4032 104.671 32.4032C104.671 32.1087 104.671 31.8141 104.671 31.8141H104.082V32.1087C104.082 32.1087 104.082 32.4032 104.082 32.9924V38.0001H104.671V35.9381C104.966 36.2327 105.556 36.5273 106.145 36.5273C107.325 36.5273 108.504 35.6435 108.504 34.1707C108.504 32.9924 107.619 31.8141 106.145 31.8141ZM106.145 35.9381C105.261 35.9381 104.671 35.349 104.671 35.0544V32.9924C104.671 32.6978 105.261 32.1087 106.145 32.1087C107.03 32.1087 107.914 32.9924 107.914 33.8761C107.914 35.349 107.325 35.9381 106.145 35.9381Z" fill="white"/>
<path d="M112.336 31.8141C111.157 31.8141 110.273 32.6978 110.273 34.1707C110.273 35.349 111.157 36.5273 112.336 36.5273C113.516 36.5273 114.4 35.6435 114.4 34.1707C114.695 32.9924 113.81 31.8141 112.336 31.8141ZM112.336 35.9381C111.452 35.9381 110.568 35.0544 110.568 34.1707C110.568 32.9924 111.157 32.4032 112.336 32.4032C113.221 32.4032 114.105 33.287 114.105 34.1707C114.105 35.349 113.516 35.9381 112.336 35.9381Z" fill="white"/>
<path d="M118.527 31.8141C117.348 31.8141 116.464 32.6978 116.464 34.1707C116.464 35.349 117.348 36.5273 118.527 36.5273C119.706 36.5273 120.296 35.6435 120.296 35.6435L120.001 35.349C120.001 35.349 119.412 36.2327 118.527 36.2327C117.643 36.2327 117.053 35.6435 116.758 34.4652H120.296C120.296 34.4652 120.296 34.4653 120.296 34.1707C120.591 32.9924 119.706 31.8141 118.527 31.8141ZM117.053 33.8761C117.053 32.9924 117.938 32.1087 118.527 32.1087C119.412 32.1087 120.001 32.9924 120.001 33.8761H117.053Z" fill="white"/>
<path d="M126.192 32.1086H125.603L124.423 33.8761H123.244V32.1086H122.655V36.2327H123.244V34.4652H124.423L125.897 36.2327H126.487L124.718 34.1707L126.192 32.1086Z" fill="white"/>
<path d="M127.371 32.4032H129.14V36.2327H129.73V32.4032H131.204L131.499 32.1086H127.371V32.4032Z" fill="white"/>
<path d="M133.857 35.6435V32.1086H133.268V36.2327H133.562L136.51 32.6978V36.2327H136.805V32.1086H136.51L133.857 35.6435Z" fill="white"/>
<path d="M141.522 31.8141C140.638 31.8141 140.343 32.4032 140.048 32.4032C140.048 32.1087 140.048 31.8141 140.048 31.8141H139.458V32.1087C139.458 32.1087 139.458 32.4032 139.458 32.9924V38.0001H140.048V35.9381C140.343 36.2327 140.932 36.5273 141.522 36.5273C142.701 36.5273 143.881 35.6435 143.881 34.1707C143.586 32.9924 142.701 31.8141 141.522 31.8141ZM141.522 35.9381C140.638 35.9381 140.048 35.349 140.048 35.0544V32.9924C140.048 32.6978 140.638 32.1087 141.522 32.1087C142.407 32.1087 143.291 32.9924 143.291 33.8761C143.291 35.349 142.407 35.9381 141.522 35.9381Z" fill="white"/>
<path d="M147.713 31.8141C146.534 31.8141 145.649 32.6978 145.649 34.1707C145.649 35.349 146.534 36.5273 147.713 36.5273C148.892 36.5273 149.777 35.6435 149.777 34.1707C149.777 32.9924 148.892 31.8141 147.713 31.8141ZM147.713 35.9381C146.829 35.9381 145.944 35.0544 145.944 34.1707C145.944 32.9924 146.534 32.4032 147.713 32.4032C148.597 32.4032 149.482 33.287 149.482 34.1707C149.482 35.349 148.597 35.9381 147.713 35.9381Z" fill="white"/>
<path d="M154.788 33.8761C155.083 33.8761 155.378 33.5815 155.378 32.9924C155.378 32.4032 154.788 31.8141 153.904 31.8141H152.135V36.2327H154.199C155.378 36.2327 155.968 35.6435 155.968 35.0544C155.673 34.4652 155.083 34.1707 154.788 33.8761ZM153.904 33.8761H152.725V32.4032H153.904C154.494 32.4032 154.788 32.6978 154.788 32.9924C154.788 33.287 154.494 33.8761 153.904 33.8761ZM152.43 34.1707H153.904C154.494 34.1707 155.083 34.4652 155.083 35.0544C155.083 35.6435 154.788 35.9381 153.904 35.9381H152.43V34.1707Z" fill="white"/>
<path d="M160.979 35.349V33.8761C160.979 32.6978 160.39 32.1086 159.21 32.1086C158.326 32.1086 157.736 32.6978 157.736 32.9924L158.031 33.2869C158.031 33.2869 158.621 32.6978 159.21 32.6978C160.095 32.6978 160.684 33.2869 160.684 34.1707C160.39 34.1707 159.8 33.8761 159.21 33.8761C158.031 33.8761 157.442 34.4652 157.442 35.349C157.442 36.2327 158.031 36.8218 159.21 36.8218C160.095 36.8218 160.39 36.2327 160.684 36.2327C160.684 36.5272 160.684 36.8218 160.684 36.8218H161.274V36.5272C161.274 36.2327 160.979 35.9381 160.979 35.349ZM159.21 35.9381C158.326 35.9381 158.031 35.6435 158.031 34.7598C158.031 34.1707 158.621 33.5815 159.21 33.5815C159.8 33.5815 160.39 33.8761 160.684 33.8761V35.349C160.39 35.349 159.8 35.9381 159.21 35.9381Z" fill="white"/>
<path d="M166.875 33.8761H164.222V32.1086H163.632V36.2327H164.222V34.4652H166.875V36.2327H167.17V32.1086H166.875V33.8761Z" fill="white"/>
<path d="M170.413 35.6435V32.1086H169.823V36.2327H170.413L173.066 32.6978V36.2327H173.656V32.1086H173.066L170.413 35.6435Z" fill="white"/>
<path d="M177.783 31.8141C176.604 31.8141 175.719 32.6978 175.719 34.1707C175.719 35.349 176.604 36.5273 177.783 36.5273C178.962 36.5273 179.552 35.6435 179.552 35.6435L179.257 35.349C179.257 35.349 178.668 36.2327 177.783 36.2327C176.899 36.2327 176.309 35.6435 176.014 34.4652H179.552C179.552 34.4652 179.552 34.4653 179.552 34.1707C179.847 32.9924 178.962 31.8141 177.783 31.8141ZM176.309 33.8761C176.309 32.9924 177.194 32.1087 177.783 32.1087C178.668 32.1087 179.257 32.9924 179.257 33.8761H176.309Z" fill="white"/>
<path d="M185.743 35.6435V32.1086H185.153V36.2327H185.743L188.396 32.6978V36.2327H188.986V32.1086H188.396L185.743 35.6435Z" fill="white"/>
<path d="M197.83 35.349C197.83 35.349 197.24 36.2327 196.356 36.2327C195.471 36.2327 194.587 35.349 194.587 34.4652C194.587 33.2869 195.177 32.6978 196.356 32.6978C197.24 32.6978 197.83 33.2869 197.83 33.2869L198.125 32.9924C198.125 32.9924 197.535 32.1086 196.356 32.1086C195.177 32.1086 194.292 32.9924 194.292 34.4652C194.292 35.6435 195.177 36.8218 196.356 36.8218C197.535 36.8218 198.125 35.9381 198.125 35.9381L197.83 35.349Z" fill="white"/>
<path d="M199.304 32.4032H201.073V36.2327H201.662V32.4032H203.136L203.431 32.1086H199.304V32.4032Z" fill="white"/>
<path d="M207.264 31.8141C206.379 31.8141 206.084 32.4032 205.79 32.4032C205.79 32.1087 205.79 31.8141 205.79 31.8141H205.2V32.1087C205.2 32.1087 205.2 32.4032 205.2 32.9924V38.0001H205.79V35.9381C206.084 36.2327 206.674 36.5273 207.264 36.5273C208.443 36.5273 209.622 35.6435 209.622 34.1707C209.327 32.9924 208.443 31.8141 207.264 31.8141ZM207.264 35.9381C206.379 35.9381 205.79 35.349 205.79 35.0544V32.9924C205.79 32.6978 206.379 32.1087 207.264 32.1087C208.148 32.1087 209.032 32.9924 209.032 33.8761C208.738 35.349 208.148 35.9381 207.264 35.9381Z" fill="white"/>
<path d="M213.455 31.8141C212.275 31.8141 211.391 32.6978 211.391 34.1707C211.391 35.349 212.275 36.5273 213.455 36.5273C214.634 36.5273 215.518 35.6435 215.518 34.1707C215.518 32.9924 214.634 31.8141 213.455 31.8141ZM213.455 35.9381C212.57 35.9381 211.686 35.0544 211.686 34.1707C211.686 32.9924 212.275 32.4032 213.455 32.4032C214.339 32.4032 215.223 33.287 215.223 34.1707C214.929 35.349 214.339 35.9381 213.455 35.9381Z" fill="white"/>
<path d="M218.171 35.6435V32.1086H217.582V36.2327H218.171L220.825 32.6978V36.2327H221.414V32.1086H220.825L218.171 35.6435Z" fill="white"/>
<path d="M223.183 32.4032H224.952V36.2327H225.542V32.4032H227.016V32.1086H223.183V32.4032Z" fill="white"/>
<path d="M230.553 31.8141C229.374 31.8141 228.49 32.6978 228.49 34.1707C228.49 35.349 229.374 36.5273 230.553 36.5273C231.732 36.5273 232.322 35.6435 232.322 35.6435L232.027 35.349C232.027 35.349 231.438 36.2327 230.553 36.2327C229.669 36.2327 229.079 35.6435 228.784 34.4652H232.322C232.322 34.4652 232.322 34.4653 232.322 34.1707C232.617 32.9924 231.732 31.8141 230.553 31.8141ZM229.079 33.8761C229.079 32.9924 229.964 32.1087 230.553 32.1087C231.438 32.1087 232.027 32.9924 232.027 33.8761H229.079Z" fill="white"/>
<path d="M235.27 34.4652C235.27 35.6435 234.68 35.9381 234.386 35.9381H234.091V36.2327H234.386C234.68 36.2327 235.565 35.9381 235.86 34.4652L236.155 32.4032H238.218V36.2327H238.808V31.8141H235.86L235.27 34.4652Z" fill="white"/>
<path d="M242.935 33.5815H241.756V32.1086H241.166V36.5272H242.935C244.114 36.5272 244.704 35.9381 244.704 35.0544C244.704 34.1707 243.819 33.5815 242.935 33.5815ZM242.935 35.9381H241.756V33.8761H242.935C243.819 33.8761 244.114 34.4652 244.114 34.7598C244.114 35.349 243.525 35.9381 242.935 35.9381Z" fill="white"/>
<path d="M250.01 35.349C250.01 35.349 249.421 36.2327 248.536 36.2327C247.652 36.2327 246.768 35.349 246.768 34.4652C246.768 33.2869 247.357 32.6978 248.536 32.6978C249.421 32.6978 250.01 33.2869 250.01 33.2869L250.305 32.9924C250.305 32.9924 249.716 32.1086 248.536 32.1086C247.357 32.1086 246.473 32.9924 246.473 34.4652C246.473 35.6435 247.357 36.8218 248.536 36.8218C249.716 36.8218 250.305 35.9381 250.305 35.9381L250.01 35.349Z" fill="white"/>
<path d="M251.484 32.4032H253.253V36.2327H253.548V32.4032H255.317V32.1086H251.484V32.4032Z" fill="white"/>
<path d="M260.034 33.8761C260.329 33.8761 260.623 33.5815 260.623 32.9924C260.623 32.4032 260.034 31.8141 259.149 31.8141H257.381V36.2327H259.444C260.623 36.2327 261.213 35.6435 261.213 35.0544C260.918 34.4652 260.329 34.1707 260.034 33.8761ZM259.149 33.8761H257.675V32.4032H258.855C259.444 32.4032 259.739 32.6978 259.739 32.9924C259.739 33.287 259.739 33.8761 259.149 33.8761ZM257.675 34.1707H259.149C259.739 34.1707 260.329 34.4652 260.329 35.0544C260.329 35.6435 260.034 35.9381 259.149 35.9381H257.675V34.1707Z" fill="white"/>
<path d="M264.751 31.8141C263.571 31.8141 262.687 32.6978 262.687 34.1707C262.687 35.349 263.571 36.5273 264.751 36.5273C265.93 36.5273 266.814 35.6435 266.814 34.1707C266.814 32.9924 265.93 31.8141 264.751 31.8141ZM264.751 35.9381C263.866 35.9381 262.982 35.0544 262.982 34.1707C262.982 32.9924 263.571 32.4032 264.751 32.4032C265.635 32.4032 266.519 33.287 266.519 34.1707C266.519 35.349 265.635 35.9381 264.751 35.9381Z" fill="white"/>
<path d="M169.529 5.5969C169.823 5.00775 170.413 4.71318 171.297 4.12403C171.887 3.82946 172.771 3.53488 173.656 3.53488C174.54 3.53488 175.425 3.82946 176.014 4.12403C176.604 4.4186 177.194 5.00775 177.783 5.5969C178.078 6.18605 178.668 6.77519 178.668 7.36434H183.384C183.384 6.77519 183.09 6.18605 182.795 5.5969C182.205 4.4186 181.616 3.53488 180.731 2.65116C179.847 1.76744 178.668 1.17829 177.488 0.589147C176.309 0.294574 174.835 0 173.656 0C172.182 0 171.003 0.294574 169.823 0.589147C168.644 1.17829 167.465 1.76744 166.581 2.65116C165.696 3.53488 165.107 4.4186 164.517 5.5969C163.927 6.77519 163.632 7.95349 163.632 9.42636C163.632 10.8992 163.927 12.0775 164.517 13.2558C165.107 14.4341 165.696 15.6124 166.581 16.2016C167.465 17.0853 168.644 17.6744 169.823 18.2636C171.003 18.8527 172.477 18.8527 173.656 18.8527C175.13 18.8527 176.309 18.5581 177.488 18.2636C178.668 17.6744 179.847 17.0853 180.731 16.2016C181.616 15.3178 182.205 14.4341 182.795 13.2558C183.09 12.9612 183.09 12.3721 183.384 11.7829H178.668C178.373 12.3721 178.078 12.6667 177.783 13.2558C177.488 13.845 176.899 14.1395 176.014 14.7287C175.425 15.0233 174.54 15.3178 173.656 15.3178C172.771 15.3178 171.887 15.0233 171.297 14.7287C170.708 14.4341 170.118 13.845 169.529 13.2558C169.234 12.9612 168.939 12.3721 168.644 11.7829C168.349 11.1938 168.349 10.3101 168.349 9.72093C168.349 9.13178 168.349 8.24806 168.644 7.65892C168.939 6.77519 169.234 6.18605 169.529 5.5969Z" fill="white"/>
<path d="M131.794 10.8992C131.499 10.6046 130.909 10.3101 130.319 10.0155C129.73 9.72091 129.14 9.72091 128.551 9.72091C129.14 9.42634 129.435 9.42634 130.025 9.13177C130.614 8.83719 130.909 8.54262 131.204 8.24804C131.499 7.95347 131.794 7.6589 132.088 7.06975C132.383 6.4806 132.383 5.89146 132.383 5.30231C132.383 3.82944 131.794 2.65115 130.614 1.76742C129.435 0.883703 127.961 0.294556 125.603 0.294556H117.053V18.8527H126.192C128.551 18.8527 130.319 18.2635 131.499 17.3798C132.678 16.4961 133.268 15.3178 133.268 13.8449C133.268 12.9612 133.268 12.3721 132.973 11.7829C132.678 11.4884 132.383 11.1938 131.794 10.8992ZM128.551 14.7287C128.256 15.0232 127.961 15.3178 127.371 15.3178C127.077 15.3178 126.487 15.6124 125.897 15.6124H124.129H121.475V3.82944H123.834C124.423 3.82944 125.013 3.82944 125.603 3.82944C126.192 3.82944 126.487 3.82944 127.077 4.12401C127.371 4.41859 127.666 4.41859 127.961 4.71316C128.256 5.00773 128.256 5.30231 128.256 5.89146C128.256 6.77518 127.961 7.36432 127.371 7.6589C126.782 7.95347 125.897 7.95347 125.013 7.95347V10.8992C125.308 10.8992 125.897 10.8992 126.192 10.8992C126.782 10.8992 127.371 10.8992 127.666 11.1938C127.961 11.4884 128.551 11.4884 128.845 11.7829C129.14 12.0775 129.14 12.6666 129.14 13.2558C128.845 14.1395 128.845 14.4341 128.551 14.7287Z" fill="white"/>
<path d="M153.019 19.1473H157.736V5.89148L153.019 12.0775V19.1473Z" fill="white"/>
<path d="M157.442 0.589111H152.135L143.586 12.0775V0.589111H138.869V19.1473H143.586L157.442 0.589111Z" fill="white"/>
<path d="M112.336 18.8527L104.671 0.589111H100.249L105.556 14.4341H99.0701L100.544 10.8992L98.1857 4.71314L92.5844 18.8527H112.336Z" fill="white"/>
<path d="M69 18.8527H74.0117L75.4857 14.7286H70.7688L69 18.8527Z" fill="white"/>
<path d="M76.6649 0.589111L72.2429 11.1938H76.9597L79.0234 5.89144L81.087 11.1938L79.613 14.7286H82.2662L83.7403 18.8527H88.752L81.6766 0.589111H76.6649Z" fill="white"/>
<path d="M42.8996 17.9944V22.1173H36.7008V14.1732H30.6004V7.63687H24.5V1H18.3996V22.1173H12.2992V16.5866H6.19879V22.1173H0V37H49V17.9944H42.8996Z" fill="#009AD2"/>
</svg>
