<svg width="12" height="12" viewBox="0 0 12 12" fill="none" xmlns="http://www.w3.org/2000/svg">
<path d="M6 0C3.51855 0 1.5 2.01879 1.5 4.5C1.5 7.81983 5.65186 11.7656 5.82863 11.9321C5.87695 11.9773 5.93848 12 6 12C6.06152 12 6.12305 11.9773 6.1714 11.9321C6.34814 11.7656 10.5 7.81983 10.5 4.5C10.5 2.01879 8.48145 0 6 0ZM6 7.00001C4.62157 7.00001 3.49999 5.87843 3.49999 4.5C3.49999 3.12157 4.62159 1.99999 6 1.99999C7.37841 1.99999 8.50001 3.12159 8.50001 4.5C8.50001 5.87841 7.37843 7.00001 6 7.00001Z" fill="#009AD2"/>
</svg>
