<svg width="17" height="17" viewBox="0 0 17 17" fill="none" xmlns="http://www.w3.org/2000/svg">
<path d="M14.1433 2.95578C12.8455 1.07747 10.7886 0 8.50057 0C6.21251 0 4.15568 1.07747 2.85787 2.95578C1.56643 4.82458 1.26823 7.19054 2.0586 9.28084C2.27001 9.85167 2.60605 10.4063 3.05503 10.926L8.04805 16.7908C8.16097 16.9235 8.32642 17 8.50057 17C8.67472 17 8.84017 16.9235 8.9531 16.7908L13.9447 10.9275C14.3957 10.4049 14.7313 9.85087 14.9409 9.28462C15.7329 7.19054 15.4347 4.82458 14.1433 2.95578ZM13.8278 8.86832C13.6662 9.30521 13.4023 9.73715 13.0438 10.1526C13.0428 10.1536 13.0418 10.1546 13.041 10.1558L8.50057 15.4888L3.95732 10.1525C3.59909 9.73735 3.33516 9.30544 3.1719 8.86437C2.51827 7.13565 2.76633 5.17946 3.83567 3.63182C4.90836 2.07925 6.60876 1.1888 8.50057 1.1888C10.3924 1.1888 12.0926 2.07921 13.1653 3.63182C14.2348 5.17946 14.4831 7.13565 13.8278 8.86832Z" fill="#BAB7B7"/>
<path d="M8.50056 3.52686C6.66522 3.52686 5.17188 5.02 5.17188 6.85553C5.17188 8.69107 6.66502 10.1842 8.50056 10.1842C10.3361 10.1842 11.8292 8.69107 11.8292 6.85553C11.8292 5.0202 10.3359 3.52686 8.50056 3.52686ZM8.50056 8.99538C7.32065 8.99538 6.36068 8.03541 6.36068 6.8555C6.36068 5.6756 7.32065 4.71563 8.50056 4.71563C9.68046 4.71563 10.6404 5.6756 10.6404 6.8555C10.6404 8.03541 9.68046 8.99538 8.50056 8.99538Z" fill="#BAB7B7"/>
</svg>
